<?xml version="1.0" standalone="no"?>
<!DOCTYPE svg PUBLIC "-//W3C//DTD SVG 20010904//EN"
 "http://www.w3.org/TR/2001/REC-SVG-20010904/DTD/svg10.dtd">
<svg version="1.0" xmlns="http://www.w3.org/2000/svg"
 width="2560.000000pt" height="1052.000000pt" viewBox="0 0 2560.000000 1052.000000"
 preserveAspectRatio="xMidYMid meet">

<g transform="translate(0.000000,1052.000000) scale(0.100000,-0.100000)"
fill="#000000" stroke="none">
<path d="M20315 7440 c-536 -85 -872 -425 -935 -946 -39 -323 67 -630 332
-961 6 -8 -21 -29 -89 -69 -306 -183 -518 -400 -619 -634 -73 -168 -113 -408
-99 -600 42 -599 408 -1006 1030 -1142 88 -20 129 -22 345 -22 218 0 257 2
350 22 306 67 526 186 740 402 63 63 126 132 140 153 14 20 27 37 30 36 3 0
104 -110 224 -244 136 -152 233 -251 255 -262 32 -16 75 -18 427 -21 384 -3
391 -2 417 18 37 29 36 77 0 122 -16 18 -222 243 -460 500 l-432 468 68 117
c504 864 541 929 541 960 0 43 -28 70 -82 78 -24 4 -167 5 -318 3 -304 -3
-315 -5 -363 -70 -14 -18 -95 -157 -182 -308 -86 -151 -160 -279 -165 -283 -4
-5 -120 112 -256 260 -349 376 -340 366 -329 370 6 2 50 27 98 56 380 228 589
478 651 779 10 47 16 127 16 206 0 343 -122 605 -372 798 -115 89 -289 165
-462 200 -86 18 -416 27 -501 14z m316 -650 c163 -31 273 -145 302 -316 14
-82 -2 -186 -41 -258 -52 -98 -182 -208 -396 -336 l-89 -54 -44 50 c-187 211
-263 360 -263 521 0 276 234 449 531 393z m-12 -2178 l422 -453 -33 -46 c-54
-75 -177 -201 -244 -249 -128 -91 -251 -132 -424 -140 -144 -7 -233 10 -350
67 -208 103 -339 315 -340 550 0 237 100 429 304 583 92 69 218 147 232 144 6
-2 201 -207 433 -456z"/>
<path d="M13854 7349 c-16 -4 -41 -20 -54 -34 -16 -17 -243 -636 -746 -2036
-398 -1107 -724 -2020 -724 -2030 0 -32 23 -70 51 -85 22 -11 86 -14 316 -14
326 0 339 3 379 76 12 21 90 238 175 482 l153 442 851 0 852 0 153 -442 c84
-244 162 -460 173 -481 40 -73 34 -72 395 -75 l323 -3 29 30 c21 21 30 39 30
63 0 40 -1430 4020 -1458 4057 -41 55 -44 56 -472 58 -217 1 -409 -3 -426 -8z
m710 -1645 c163 -468 296 -854 296 -858 0 -3 -273 -6 -606 -6 -502 0 -605 2
-602 13 14 60 604 1715 609 1709 3 -4 140 -390 303 -858z"/>
<path d="M15765 7350 c-11 -4 -31 -20 -45 -35 l-25 -27 -3 -253 c-4 -288 2
-325 51 -355 31 -19 55 -20 625 -20 l592 0 0 -1705 c0 -1870 -4 -1757 60
-1790 26 -14 71 -15 335 -13 l305 3 27 28 28 27 5 1723 5 1722 603 5 604 5 29
33 29 32 0 278 c0 240 -2 281 -16 301 -38 53 39 51 -1636 50 -854 0 -1562 -4
-1573 -9z"/>
<path d="M22374 7346 c-63 -28 -64 -32 -64 -338 l0 -278 29 -32 29 -33 604 -5
603 -5 5 -1722 5 -1723 28 -27 27 -28 305 -3 c264 -2 309 -1 335 13 64 33 60
-80 60 1790 l0 1705 590 0 c632 0 633 0 660 49 6 12 10 128 10 303 l0 284 -31
30 -30 29 -1567 2 c-1305 2 -1572 0 -1598 -11z"/>
</g>
</svg>
