<?xml version="1.0" encoding="UTF-8"?>
<!DOCTYPE svg PUBLIC "-//W3C//DTD SVG 1.1//EN" "http://www.w3.org/Graphics/SVG/1.1/DTD/svg11.dtd">
<svg xmlns="http://www.w3.org/2000/svg" version="1.1" width="2560px" height="340px" style="shape-rendering:geometricPrecision; text-rendering:geometricPrecision; image-rendering:optimizeQuality; fill-rule:evenodd; clip-rule:evenodd" xmlns:xlink="http://www.w3.org/1999/xlink">
<g><path style="opacity:0.994" fill="#cc0000" d="M 110.5,9.5 C 122.873,8.33939 134.206,11.1727 144.5,18C 163.972,36.4713 183.138,55.3046 202,74.5C 221.528,54.638 241.362,35.138 261.5,16C 281.526,5.8098 300.192,7.8098 317.5,22C 341.726,45.5581 365.226,69.7247 388,94.5C 397.097,111.899 396.43,128.899 386,145.5C 324.653,207.014 263.153,268.347 201.5,329.5C 140.18,268.68 79.0136,207.68 18,146.5C 5.74336,128.406 5.41002,110.073 17,91.5C 41.5302,65.3028 67.0302,40.1362 93.5,16C 99.0196,13.11 104.686,10.9433 110.5,9.5 Z"/></g>
<g><path style="opacity:0.989" fill="#cc0000" d="M 562.5,9.5 C 593.344,7.01907 623.344,10.8524 652.5,21C 700.476,42.3864 725.476,79.5531 727.5,132.5C 696.493,132.833 665.493,132.5 634.5,131.5C 632.474,106.899 619.474,92.0653 595.5,87C 562.544,82.3266 541.377,95.8266 532,127.5C 524.749,155.17 524.749,182.837 532,210.5C 544.841,247.005 570.008,259.839 607.5,249C 622.145,242.006 631.312,230.506 635,214.5C 635.828,210.534 636.328,206.534 636.5,202.5C 667.5,202.5 698.5,202.5 729.5,202.5C 724.951,271.879 688.618,313.379 620.5,327C 588.035,331.923 556.035,329.923 524.5,321C 471.493,300.893 440.327,262.727 431,206.5C 425.506,170.84 428.173,135.84 439,101.5C 457.786,53.7199 492.286,24.2199 542.5,13C 549.289,11.7029 555.956,10.5363 562.5,9.5 Z"/></g>
<g><path style="opacity:0.988" fill="#cc0000" d="M 1102.5,9.5 C 1131.82,7.07313 1160.49,10.2398 1188.5,19C 1228.24,34.2401 1249.91,63.0735 1253.5,105.5C 1222.5,105.5 1191.5,105.5 1160.5,105.5C 1158.44,90.9369 1150.1,82.4369 1135.5,80C 1123.01,77.2563 1111.01,78.5896 1099.5,84C 1088.86,93.705 1088.86,103.372 1099.5,113C 1105.26,115.922 1111.26,118.255 1117.5,120C 1140.54,125.844 1163.54,131.844 1186.5,138C 1249.72,155.9 1273.22,196.733 1257,260.5C 1244.63,292.528 1221.8,313.028 1188.5,322C 1161.26,329.068 1133.59,331.401 1105.5,329C 1077.99,327.275 1052.99,318.608 1030.5,303C 1006.23,282.965 993.232,257.132 991.5,225.5C 1023.17,225.167 1054.84,225.5 1086.5,226.5C 1090.44,244.273 1101.44,254.106 1119.5,256C 1133.18,258.068 1146.18,256.068 1158.5,250C 1167.27,242.461 1168.77,233.628 1163,223.5C 1156.82,218.1 1149.66,214.6 1141.5,213C 1107.76,205.317 1074.76,195.317 1042.5,183C 1011.98,166.823 996.649,141.323 996.5,106.5C 997.407,66.4489 1016.07,38.2823 1052.5,22C 1068.74,15.6073 1085.4,11.4406 1102.5,9.5 Z"/></g>
<g><path style="opacity:0.988" fill="#cc0000" d="M 707.5,18.5 C 740.996,17.5017 774.663,17.1684 808.5,17.5C 824.54,81.6578 841.206,145.658 858.5,209.5C 876.651,145.899 894.651,82.2323 912.5,18.5C 944.493,17.5001 976.493,17.1668 1008.5,17.5C 975.234,118.964 941.568,220.297 907.5,321.5C 874.593,321.829 841.76,321.496 809,320.5C 775.628,219.551 741.795,118.884 707.5,18.5 Z"/></g>
<g><path style="opacity:0.969" fill="#000000" d="M 1289.5,17.5 C 1321.83,17.5 1354.17,17.5 1386.5,17.5C 1386.5,27.1667 1386.5,36.8333 1386.5,46.5C 1376.5,46.5 1366.5,46.5 1356.5,46.5C 1356.5,79.1667 1356.5,111.833 1356.5,144.5C 1406.83,144.5 1457.17,144.5 1507.5,144.5C 1507.5,111.833 1507.5,79.1667 1507.5,46.5C 1497.17,46.5 1486.83,46.5 1476.5,46.5C 1476.5,36.8333 1476.5,27.1667 1476.5,17.5C 1508.83,17.5 1541.17,17.5 1573.5,17.5C 1573.5,27.1667 1573.5,36.8333 1573.5,46.5C 1563.5,46.5 1553.5,46.5 1543.5,46.5C 1543.5,128.5 1543.5,210.5 1543.5,292.5C 1553.5,292.5 1563.5,292.5 1573.5,292.5C 1573.5,302.167 1573.5,311.833 1573.5,321.5C 1541.17,321.5 1508.83,321.5 1476.5,321.5C 1476.5,311.833 1476.5,302.167 1476.5,292.5C 1486.83,292.5 1497.17,292.5 1507.5,292.5C 1507.5,252.5 1507.5,212.5 1507.5,172.5C 1457.17,172.5 1406.83,172.5 1356.5,172.5C 1356.5,212.5 1356.5,252.5 1356.5,292.5C 1366.5,292.5 1376.5,292.5 1386.5,292.5C 1386.5,302.167 1386.5,311.833 1386.5,321.5C 1354.17,321.5 1321.83,321.5 1289.5,321.5C 1289.5,311.833 1289.5,302.167 1289.5,292.5C 1299.5,292.5 1309.5,292.5 1319.5,292.5C 1319.5,210.5 1319.5,128.5 1319.5,46.5C 1309.5,46.5 1299.5,46.5 1289.5,46.5C 1289.5,36.8333 1289.5,27.1667 1289.5,17.5 Z"/></g>
<g><path style="opacity:0.967" fill="#000000" d="M 2080.5,17.5 C 2101.5,17.5 2122.5,17.5 2143.5,17.5C 2143.33,103.167 2143.5,188.834 2144,274.5C 2144.21,284.107 2148.71,290.607 2157.5,294C 2164.86,294.683 2172.19,294.517 2179.5,293.5C 2179.5,303.167 2179.5,312.833 2179.5,322.5C 2165.03,325.56 2150.7,325.06 2136.5,321C 2122.57,315.401 2114.07,305.234 2111,290.5C 2110.09,286.205 2109.42,281.872 2109,277.5C 2108.5,200.501 2108.33,123.501 2108.5,46.5C 2099.17,46.5 2089.83,46.5 2080.5,46.5C 2080.5,36.8333 2080.5,27.1667 2080.5,17.5 Z"/></g>
<g><path style="opacity:0.967" fill="#000000" d="M 2305.5,17.5 C 2326.5,17.5 2347.5,17.5 2368.5,17.5C 2368.33,56.1681 2368.5,94.8348 2369,133.5C 2382.71,117.394 2400.21,108.227 2421.5,106C 2477.82,102.231 2510.99,128.064 2521,183.5C 2522.42,220.146 2522.92,256.813 2522.5,293.5C 2531.83,293.5 2541.17,293.5 2550.5,293.5C 2550.5,302.833 2550.5,312.167 2550.5,321.5C 2519.83,321.5 2489.17,321.5 2458.5,321.5C 2458.5,312.167 2458.5,302.833 2458.5,293.5C 2468.17,293.5 2477.83,293.5 2487.5,293.5C 2487.92,257.146 2487.42,220.813 2486,184.5C 2480.62,152.312 2461.62,135.979 2429,135.5C 2391.39,136.446 2371.39,155.779 2369,193.5C 2368.5,226.832 2368.33,260.165 2368.5,293.5C 2378.17,293.5 2387.83,293.5 2397.5,293.5C 2397.5,302.833 2397.5,312.167 2397.5,321.5C 2366.83,321.5 2336.17,321.5 2305.5,321.5C 2305.5,312.167 2305.5,302.833 2305.5,293.5C 2314.83,293.5 2324.17,293.5 2333.5,293.5C 2333.5,211.167 2333.5,128.833 2333.5,46.5C 2324.17,46.5 2314.83,46.5 2305.5,46.5C 2305.5,36.8333 2305.5,27.1667 2305.5,17.5 Z"/></g>
<g><path style="opacity:0.97" fill="#000000" d="M 2210.5,58.5 C 2222.17,58.5 2233.83,58.5 2245.5,58.5C 2245.5,76.1667 2245.5,93.8333 2245.5,111.5C 2259.5,111.5 2273.5,111.5 2287.5,111.5C 2287.5,120.833 2287.5,130.167 2287.5,139.5C 2273.5,139.5 2259.5,139.5 2245.5,139.5C 2245.33,185.835 2245.5,232.168 2246,278.5C 2249.24,290.72 2257.24,296.386 2270,295.5C 2275.76,294.588 2281.59,293.921 2287.5,293.5C 2287.67,302.839 2287.5,312.173 2287,321.5C 2271.18,325.533 2255.35,325.366 2239.5,321C 2222.42,314.377 2212.92,301.877 2211,283.5C 2210.5,235.501 2210.33,187.501 2210.5,139.5C 2199.5,139.5 2188.5,139.5 2177.5,139.5C 2177.5,130.167 2177.5,120.833 2177.5,111.5C 2188.5,111.5 2199.5,111.5 2210.5,111.5C 2210.5,93.8333 2210.5,76.1667 2210.5,58.5 Z"/></g>
<g><path style="opacity:0.964" fill="#000000" d="M 1683.5,105.5 C 1718.68,101.905 1749.18,111.905 1775,135.5C 1791.39,153.991 1800.39,175.657 1802,200.5C 1802.5,209.827 1802.67,219.161 1802.5,228.5C 1742.5,228.5 1682.5,228.5 1622.5,228.5C 1629.35,279.17 1658.35,302.336 1709.5,298C 1732.49,295.35 1750.15,284.35 1762.5,265C 1774.16,264.5 1785.83,264.333 1797.5,264.5C 1781.22,301.343 1752.89,322.177 1712.5,327C 1679.95,331.097 1650.61,323.431 1624.5,304C 1599.26,280.652 1586.59,251.652 1586.5,217C 1586.48,179.052 1601.14,148.386 1630.5,125C 1646.76,114.415 1664.43,107.915 1683.5,105.5 Z M 1688.5,134.5 C 1734.25,133.246 1760.58,155.246 1767.5,200.5C 1719.16,200.833 1670.83,200.5 1622.5,199.5C 1628.73,161.606 1650.73,139.94 1688.5,134.5 Z"/></g>
<g><path style="opacity:0.967" fill="#000000" d="M 1917.5,105.5 C 1952.89,102.227 1982.05,113.894 2005,140.5C 2005.5,130.839 2005.67,121.172 2005.5,111.5C 2026.83,111.5 2048.17,111.5 2069.5,111.5C 2069.5,120.833 2069.5,130.167 2069.5,139.5C 2059.83,139.5 2050.17,139.5 2040.5,139.5C 2040.5,190.833 2040.5,242.167 2040.5,293.5C 2050.17,293.5 2059.83,293.5 2069.5,293.5C 2069.5,302.833 2069.5,312.167 2069.5,321.5C 2048.17,321.5 2026.83,321.5 2005.5,321.5C 2005.67,311.828 2005.5,302.161 2005,292.5C 1981.88,319.88 1952.38,331.38 1916.5,327C 1867.07,317.567 1837.57,288.067 1828,238.5C 1821.88,200.631 1830.88,166.964 1855,137.5C 1872.12,119.523 1892.96,108.856 1917.5,105.5 Z M 1922.5,135.5 C 1970.02,133.176 1997.85,155.509 2006,202.5C 2010.67,234.685 2001.17,261.851 1977.5,284C 1948.26,303.59 1919.26,303.257 1890.5,283C 1874.89,268.951 1865.72,251.451 1863,230.5C 1859.47,204.296 1865.47,180.629 1881,159.5C 1892.12,146.692 1905.96,138.692 1922.5,135.5 Z"/></g>
</svg>
