<?xml version="1.0" encoding="UTF-8"?>
<!DOCTYPE svg PUBLIC "-//W3C//DTD SVG 1.1//EN" "http://www.w3.org/Graphics/SVG/1.1/DTD/svg11.dtd">
<svg xmlns="http://www.w3.org/2000/svg" version="1.1" width="1280px" height="278px" style="shape-rendering:geometricPrecision; text-rendering:geometricPrecision; image-rendering:optimizeQuality; fill-rule:evenodd; clip-rule:evenodd" xmlns:xlink="http://www.w3.org/1999/xlink">
<g><path style="opacity:0.982" fill="#0e0a0a" d="M 22.5,23.5 C 55.186,23.1113 87.8527,23.6113 120.5,25C 167.412,29.8383 196.578,55.0049 208,100.5C 215.02,135.713 210.686,169.379 195,201.5C 176.759,229.386 150.926,245.219 117.5,249C 85.8599,250.43 54.1932,250.93 22.5,250.5C 22.5,174.833 22.5,99.1667 22.5,23.5 Z M 83.5,74.5 C 92.8393,74.3335 102.173,74.5002 111.5,75C 131.187,79.3554 142.687,91.522 146,111.5C 149.502,129.98 148.835,148.313 144,166.5C 139.285,183.882 128.119,194.382 110.5,198C 101.552,199.307 92.5517,199.807 83.5,199.5C 83.5,157.833 83.5,116.167 83.5,74.5 Z"/></g>
<g><path style="opacity:0.977" fill="#0e0b0b" d="M 407.5,22.5 C 426.833,22.5 446.167,22.5 465.5,22.5C 465.5,98.5 465.5,174.5 465.5,250.5C 446.167,250.5 426.833,250.5 407.5,250.5C 407.5,174.5 407.5,98.5 407.5,22.5 Z"/></g>
<g><path style="opacity:0.99" fill="#0f0a0a" d="M 673.5,22.5 C 692.833,22.5 712.167,22.5 731.5,22.5C 731.5,35.5 731.5,48.5 731.5,61.5C 712.167,61.5 692.833,61.5 673.5,61.5C 673.5,48.5 673.5,35.5 673.5,22.5 Z"/></g>
<g><path style="opacity:0.985" fill="#0e0a0a" d="M 825.5,28.5 C 827.167,28.5 828.833,28.5 830.5,28.5C 830.5,46.1667 830.5,63.8333 830.5,81.5C 842.5,81.5 854.5,81.5 866.5,81.5C 866.5,96.1667 866.5,110.833 866.5,125.5C 854.5,125.5 842.5,125.5 830.5,125.5C 830.039,149.885 830.539,174.219 832,198.5C 834.888,204.634 839.722,207.3 846.5,206.5C 855.696,205.992 864.53,203.992 873,200.5C 873.833,215.178 873.666,229.845 872.5,244.5C 850.849,253.516 828.516,255.683 805.5,251C 792.648,247.481 783.481,239.648 778,227.5C 775.386,220.379 773.72,213.046 773,205.5C 772.5,178.835 772.333,152.169 772.5,125.5C 765.833,125.5 759.167,125.5 752.5,125.5C 752.5,110.833 752.5,96.1667 752.5,81.5C 759.167,81.5 765.833,81.5 772.5,81.5C 772.167,67.1512 772.501,52.8179 773.5,38.5C 790.977,35.2704 808.31,31.9371 825.5,28.5 Z"/></g>
<g><path style="opacity:0.991" fill="#0f0b0b" d="M 956.5,28.5 C 958.5,28.5 960.5,28.5 962.5,28.5C 962.5,46.1667 962.5,63.8333 962.5,81.5C 974.5,81.5 986.5,81.5 998.5,81.5C 998.5,96.1667 998.5,110.833 998.5,125.5C 986.5,125.5 974.5,125.5 962.5,125.5C 962.029,150.232 962.529,174.898 964,199.5C 967.311,204.781 972.144,207.114 978.5,206.5C 987.335,205.833 995.835,203.833 1004,200.5C 1004.83,215.178 1004.67,229.845 1003.5,244.5C 983.579,252.954 962.913,255.454 941.5,252C 921.703,248.203 909.869,236.369 906,216.5C 904.955,209.875 904.289,203.208 904,196.5C 903.5,172.836 903.333,149.169 903.5,125.5C 897.167,125.5 890.833,125.5 884.5,125.5C 884.5,110.833 884.5,96.1667 884.5,81.5C 890.833,81.5 897.167,81.5 903.5,81.5C 903.5,66.8333 903.5,52.1667 903.5,37.5C 921.383,35.0198 939.05,32.0198 956.5,28.5 Z"/></g>
<g><path style="opacity:0.986" fill="#0e0a0a" d="M 294.5,78.5 C 316.398,76.0778 337.064,79.9112 356.5,90C 374.325,102.867 384.158,120.367 386,142.5C 386.5,155.496 386.667,168.496 386.5,181.5C 352.833,181.5 319.167,181.5 285.5,181.5C 286.197,195.027 292.863,204.194 305.5,209C 316.41,211.991 327.41,212.325 338.5,210C 348.399,208.276 358.066,205.776 367.5,202.5C 370.492,215.456 372.992,228.456 375,241.5C 351.938,251.775 327.772,255.608 302.5,253C 251.572,246.894 226.239,218.061 226.5,166.5C 225.799,141.773 232.965,119.773 248,100.5C 261.051,87.8903 276.551,80.5569 294.5,78.5 Z M 306.5,118.5 C 323.348,118.345 332.681,126.678 334.5,143.5C 318.514,144.499 302.514,144.833 286.5,144.5C 286.957,130.87 293.623,122.203 306.5,118.5 Z"/></g>
<g><path style="opacity:0.986" fill="#0e0a0a" d="M 555.5,78.5 C 578.093,75.9287 599.093,80.4287 618.5,92C 641.678,111.038 652.678,135.704 651.5,166C 648.858,230.849 615.191,259.516 550.5,252C 514.602,244.066 493.769,221.9 488,185.5C 483.971,160.748 487.304,137.082 498,114.5C 511.352,93.2394 530.519,81.2394 555.5,78.5 Z M 563.5,122.5 C 574.588,120.795 582.755,124.795 588,134.5C 589.802,139.375 591.135,144.375 592,149.5C 592.667,160.167 592.667,170.833 592,181.5C 591.255,189.068 588.922,196.068 585,202.5C 573.424,212.264 562.424,211.597 552,200.5C 548.79,194.202 546.79,187.535 546,180.5C 544.892,167.055 545.559,153.722 548,140.5C 549.877,131.47 555.043,125.47 563.5,122.5 Z"/></g>
<g><path style="opacity:0.987" fill="#0e0a0a" d="M 1084.5,78.5 C 1105.09,76.2651 1124.76,79.4318 1143.5,88C 1160.78,98.3739 1171.28,113.541 1175,133.5C 1176.4,149.457 1176.9,165.457 1176.5,181.5C 1142.83,181.5 1109.17,181.5 1075.5,181.5C 1076.76,196.597 1084.76,206.097 1099.5,210C 1119.46,212.396 1138.79,209.896 1157.5,202.5C 1160.27,215.409 1163.27,228.242 1166.5,241C 1155.18,246.884 1143.18,250.55 1130.5,252C 1044.77,260.942 1007.94,222.775 1020,137.5C 1028.38,103.281 1049.88,83.6147 1084.5,78.5 Z M 1097.5,118.5 C 1114.31,118.974 1123.31,127.641 1124.5,144.5C 1108.49,144.833 1092.49,144.499 1076.5,143.5C 1077.69,130.034 1084.69,121.701 1097.5,118.5 Z"/></g>
<g><path style="opacity:0.991" fill="#0e0b0b" d="M 673.5,81.5 C 692.833,81.5 712.167,81.5 731.5,81.5C 731.5,137.833 731.5,194.167 731.5,250.5C 712.167,250.5 692.833,250.5 673.5,250.5C 673.5,194.167 673.5,137.833 673.5,81.5 Z"/></g>
<g><path style="opacity:0.986" fill="#86bc23" d="M 1220.5,187.5 C 1242.32,188.154 1254.32,199.32 1256.5,221C 1254.68,241.487 1243.51,252.654 1223,254.5C 1203.17,252.005 1192.01,240.839 1189.5,221C 1191.34,201.734 1201.67,190.567 1220.5,187.5 Z"/></g>
</svg>
