<?xml version="1.0" standalone="no"?>
<!DOCTYPE svg PUBLIC "-//W3C//DTD SVG 20010904//EN"
 "http://www.w3.org/TR/2001/REC-SVG-20010904/DTD/svg10.dtd">
<svg version="1.0" xmlns="http://www.w3.org/2000/svg"
 width="225.000000pt" height="225.000000pt" viewBox="0 0 225.000000 225.000000"
 preserveAspectRatio="xMidYMid meet">

<g transform="translate(0.000000,225.000000) scale(0.100000,-0.100000)"
fill="#000000" stroke="none">
<path d="M0 1125 l0 -1125 1125 0 1125 0 0 1125 0 1125 -380 0 -380 0 0 -204
0 -204 -144 -89 -144 -89 65 -29 c81 -35 155 -106 191 -182 24 -52 27 -70 27
-163 0 -94 -3 -111 -28 -161 -32 -67 -118 -151 -184 -182 -39 -18 -66 -22
-148 -22 -89 0 -106 3 -155 27 -289 142 -281 555 11 683 l67 29 -144 89 -144
89 0 204 0 204 -380 0 -380 0 0 -1125z m970 -320 c13 -16 6 -35 -15 -35 -18 0
-28 17 -21 35 7 19 20 19 36 0z m-500 -80 c16 -8 31 -24 34 -35 19 -64 24 -59
-60 -62 -74 -3 -77 -4 -60 -20 20 -20 66 -24 83 -7 7 7 17 8 28 2 15 -9 14
-12 -10 -31 -80 -63 -185 23 -141 114 24 51 73 66 126 39z m215 -10 c22 -21
25 -33 25 -95 0 -63 -2 -70 -20 -70 -18 0 -20 7 -20 63 0 65 -11 87 -41 87
-34 0 -49 -28 -49 -91 0 -52 -2 -59 -20 -59 -19 0 -20 7 -20 91 l0 91 24 -4
c14 -3 31 -1 38 3 24 16 59 9 83 -16z m225 11 c0 -8 -4 -18 -10 -21 -5 -3 -10
-17 -10 -31 0 -38 -42 -74 -87 -74 -28 0 -34 -3 -23 -10 8 -5 30 -10 48 -10
36 0 72 -30 72 -60 0 -37 -35 -60 -90 -60 -37 0 -55 5 -70 20 -23 23 -24 33
-9 61 7 15 7 24 0 33 -8 10 -7 17 3 25 11 9 13 25 9 60 -5 43 -3 50 18 65 31
21 149 23 149 2z m237 -8 c20 -19 23 -31 23 -95 0 -66 -2 -74 -17 -71 -14 3
-19 15 -21 63 -3 64 -14 85 -43 85 -29 0 -49 -39 -49 -98 0 -46 -3 -53 -17
-50 -15 3 -18 17 -21 92 l-3 89 29 -6 c15 -3 34 -2 42 4 25 15 52 10 77 -13z
m204 -7 c17 -17 29 -40 29 -55 0 -25 -1 -26 -70 -26 -38 0 -70 -4 -70 -8 0
-28 64 -44 87 -21 7 7 20 8 30 5 16 -7 15 -10 -10 -32 -31 -26 -66 -31 -100
-12 -34 18 -46 40 -47 85 0 34 5 46 31 67 41 35 83 34 120 -3z m188 14 c31
-15 41 -33 41 -71 0 -23 -3 -24 -70 -24 -68 0 -70 -1 -60 -20 12 -23 68 -28
88 -8 9 9 15 9 25 -1 10 -10 7 -16 -12 -32 -32 -27 -84 -24 -118 5 -23 20 -28
32 -28 71 0 39 5 51 28 71 32 27 66 30 106 9z m189 -7 c3 -13 -3 -18 -22 -18
-36 0 -56 -35 -56 -97 0 -46 -3 -53 -20 -53 -19 0 -20 7 -20 90 0 83 1 90 20
90 11 0 20 -5 20 -11 0 -6 7 -3 16 6 21 20 58 16 62 -7z m141 7 c56 -29 64
-103 16 -151 -55 -55 -155 -9 -155 71 0 27 8 44 29 66 33 32 67 37 110 14z
m-899 -86 c0 -81 -2 -90 -17 -87 -15 3 -18 17 -21 91 -3 82 -2 87 18 87 19 0
20 -6 20 -91z"/>
<path d="M385 680 c-18 -20 -17 -20 33 -20 53 0 62 6 40 28 -18 18 -53 14 -73
-8z"/>
<path d="M778 688 c-11 -30 4 -49 36 -46 26 2 31 7 31 28 0 21 -5 26 -31 28
-20 2 -34 -2 -36 -10z"/>
<path d="M770 535 c-17 -21 4 -45 40 -45 36 0 57 24 40 45 -7 8 -25 15 -40 15
-15 0 -33 -7 -40 -15z"/>
<path d="M1252 688 c-22 -22 -13 -28 38 -28 48 0 50 1 40 20 -12 23 -59 27
-78 8z"/>
<path d="M1454 683 c-17 -17 -16 -18 30 -21 55 -4 64 1 46 23 -17 20 -54 19
-76 -2z"/>
<path d="M1786 685 c-34 -34 -12 -95 34 -95 21 0 35 8 47 26 15 24 15 29 2 53
-17 31 -59 39 -83 16z"/>
<path d="M1061 1495 c-24 -7 -61 -31 -83 -52 -136 -133 -44 -363 147 -363 32
0 70 7 88 16 35 18 87 63 87 76 0 15 -68 8 -115 -13 -56 -25 -100 -21 -145 11
-89 63 -77 203 20 252 46 23 87 23 133 -2 20 -11 56 -20 79 -20 l42 0 -34 35
c-60 62 -142 85 -219 60z"/>
<path d="M1130 1290 l0 -40 125 0 125 0 0 40 0 40 -125 0 -125 0 0 -40z"/>
</g>
</svg>
