<?xml version="1.0" standalone="no"?>
<!DOCTYPE svg PUBLIC "-//W3C//DTD SVG 20010904//EN"
 "http://www.w3.org/TR/2001/REC-SVG-20010904/DTD/svg10.dtd">
<svg version="1.0" xmlns="http://www.w3.org/2000/svg"
 width="900.000000pt" height="500.000000pt" viewBox="0 0 900.000000 500.000000"
 preserveAspectRatio="xMidYMid meet">

<g transform="translate(0.000000,500.000000) scale(0.100000,-0.100000)"
fill="#000000" stroke="none">
<path d="M850 3309 c-168 -24 -309 -96 -430 -218 -100 -100 -164 -212 -201
-351 -33 -119 -33 -354 -2 -481 51 -202 150 -351 301 -450 138 -91 271 -124
461 -116 69 3 153 12 186 21 87 23 210 87 283 146 l62 51 0 319 0 320 -270 0
-270 0 0 -110 0 -110 150 0 150 0 0 -154 0 -155 -57 -34 c-140 -84 -342 -90
-488 -14 -120 63 -218 201 -250 353 -19 91 -19 273 0 349 48 190 177 334 345
386 91 28 250 27 346 -2 79 -24 179 -77 230 -121 l34 -30 0 139 0 139 -63 37
c-137 80 -336 113 -517 86z"/>
<path d="M5105 3308 c-195 -36 -354 -130 -461 -271 -55 -73 -115 -195 -139
-287 -23 -84 -31 -324 -15 -417 30 -175 102 -317 219 -433 85 -84 168 -136
287 -176 73 -26 92 -28 239 -28 150 -1 165 1 240 27 44 15 104 44 133 63 l52
34 0 136 c0 151 6 143 -64 86 -88 -71 -216 -113 -346 -113 -247 0 -419 138
-487 391 -12 47 -17 102 -17 195 1 113 4 141 27 212 48 145 140 255 261 312
75 35 114 42 225 42 132 -1 276 -55 362 -137 14 -13 28 -24 32 -24 4 0 7 61 7
135 l0 134 -67 40 c-38 21 -90 46 -118 55 -111 34 -262 45 -370 24z"/>
<path d="M6470 3314 c-179 -24 -365 -139 -469 -289 -62 -89 -93 -157 -124
-268 -19 -71 -22 -105 -21 -257 0 -147 4 -187 22 -254 96 -346 358 -556 697
-556 222 0 407 85 546 252 58 70 129 211 153 303 71 281 17 595 -139 802 -78
105 -212 199 -339 238 -81 25 -243 39 -326 29z m285 -269 c121 -57 220 -187
262 -345 24 -91 24 -310 -1 -400 -52 -189 -174 -324 -331 -364 -246 -65 -472
84 -546 360 -28 104 -31 296 -6 398 53 213 207 368 382 385 91 9 173 -3 240
-34z"/>
<path d="M3607 3287 c61 -100 408 -595 414 -591 7 4 379 550 403 592 6 9 -79
12 -409 12 -341 0 -415 -2 -408 -13z"/>
<path d="M1770 2500 l0 -790 515 0 515 0 0 120 0 120 -390 0 -390 0 2 228 3
227 353 3 352 2 0 115 0 115 -355 0 -355 0 0 210 0 210 390 0 390 0 0 115 0
115 -515 0 -515 0 0 -790z"/>
<path d="M3063 3228 c24 -35 144 -209 267 -387 l222 -323 -50 -72 c-27 -39
-153 -221 -280 -403 l-231 -333 148 0 147 0 206 300 206 300 24 -33 c13 -17
107 -152 208 -299 l183 -268 149 0 c117 0 148 3 142 13 -15 25 -542 787 -649
937 -60 86 -182 262 -270 392 l-160 237 -153 1 -153 0 44 -62z"/>
<path d="M7540 2500 l0 -790 125 0 125 0 2 577 3 577 291 -415 c160 -227 342
-487 405 -576 l114 -163 103 0 102 0 0 790 0 790 -130 0 -130 0 -2 -545 -3
-546 -379 546 -378 545 -124 0 -124 0 0 -790z"/>
</g>
</svg>
