<?xml version="1.0" standalone="no"?>
<!DOCTYPE svg PUBLIC "-//W3C//DTD SVG 20010904//EN"
 "http://www.w3.org/TR/2001/REC-SVG-20010904/DTD/svg10.dtd">
<svg version="1.0" xmlns="http://www.w3.org/2000/svg"
 width="900.000000pt" height="500.000000pt" viewBox="0 0 900.000000 500.000000"
 preserveAspectRatio="xMidYMid meet">

<g transform="translate(0.000000,500.000000) scale(0.100000,-0.100000)"
fill="#000000" stroke="none">
<path d="M4567 3537 l-198 -192 1 -1027 0 -1028 185 0 185 0 1 33 c0 17 3 49
7 71 l7 38 49 -40 c107 -89 246 -134 416 -135 134 -2 237 21 357 79 363 174
567 570 498 965 -58 337 -273 595 -588 706 -97 35 -289 43 -400 19 -88 -20
-218 -80 -269 -125 -20 -17 -38 -31 -42 -31 -3 0 -7 193 -8 429 l-3 430 -198
-192z m719 -888 c140 -25 285 -131 351 -256 119 -222 63 -490 -133 -641 -75
-59 -146 -88 -250 -104 -148 -23 -304 32 -421 148 l-63 64 0 290 0 290 64 64
c123 123 286 175 452 145z"/>
<path d="M335 3686 c-22 -9 -59 -35 -82 -59 -79 -84 -84 -202 -12 -290 69 -83
188 -103 286 -47 140 80 138 293 -3 376 -54 32 -134 40 -189 20z"/>
<path d="M1395 3039 c-257 -31 -459 -148 -541 -314 -31 -63 -37 -87 -41 -162
-9 -154 28 -266 119 -357 94 -93 272 -161 485 -186 334 -37 447 -63 501 -112
54 -50 67 -133 29 -189 -60 -90 -164 -123 -377 -122 -212 1 -357 40 -502 132
l-63 40 -108 -107 c-60 -59 -113 -115 -118 -124 -8 -15 2 -26 58 -68 216 -158
519 -237 818 -212 325 28 533 139 631 338 l39 78 0 131 c0 125 -1 132 -31 195
-100 207 -307 306 -750 359 -239 29 -333 65 -364 141 -17 41 -6 91 28 123 136
131 548 107 783 -45 l64 -41 113 119 c61 65 112 121 112 124 -1 10 -117 89
-190 128 -202 108 -469 158 -695 131z"/>
<path d="M3210 3039 c-153 -18 -315 -86 -440 -186 -92 -73 -137 -123 -200
-219 -175 -267 -188 -633 -34 -913 173 -315 521 -499 869 -461 227 26 408 113
561 272 135 139 206 283 241 486 29 175 -11 407 -99 562 -142 250 -391 420
-671 459 -88 12 -119 12 -227 0z m299 -409 c124 -44 254 -171 300 -296 118
-314 -78 -638 -415 -686 -141 -21 -302 34 -410 139 -202 198 -206 519 -9 718
64 65 150 116 236 140 75 21 214 14 298 -15z"/>
<path d="M8696 3034 c-127 -31 -242 -105 -298 -193 l-28 -45 0 112 0 112 -195
0 -195 0 0 -865 0 -865 205 0 204 0 3 548 3 547 27 55 c53 107 156 173 304
193 l84 11 0 203 0 203 -27 -1 c-16 0 -54 -7 -87 -15z"/>
<path d="M6773 3020 c-144 -33 -271 -94 -360 -175 l-44 -40 110 -109 109 -109
31 26 c124 104 388 138 536 68 119 -55 181 -143 192 -271 l6 -70 -264 0 c-361
0 -513 -24 -670 -106 -166 -87 -251 -234 -251 -434 0 -253 158 -442 426 -510
63 -16 112 -20 240 -20 245 0 356 32 459 129 30 28 57 51 60 51 4 0 7 -36 7
-80 l0 -80 190 0 191 0 -3 628 c-3 619 -4 628 -26 693 -31 92 -108 206 -177
263 -77 62 -199 119 -311 145 -120 28 -331 28 -451 1z m575 -1028 c7 -157 -64
-284 -199 -352 -157 -80 -389 -74 -493 12 -103 85 -100 251 6 328 86 63 182
78 478 76 l205 -1 3 -63z"/>
<path d="M220 2155 l0 -865 195 0 195 0 0 865 0 865 -195 0 -195 0 0 -865z"/>
</g>
</svg>
