<?xml version="1.0" standalone="no"?>
<!DOCTYPE svg PUBLIC "-//W3C//DTD SVG 20010904//EN"
 "http://www.w3.org/TR/2001/REC-SVG-20010904/DTD/svg10.dtd">
<svg version="1.0" xmlns="http://www.w3.org/2000/svg"
 width="1200.000000pt" height="630.000000pt" viewBox="0 0 1200.000000 630.000000"
 preserveAspectRatio="xMidYMid meet">

<g transform="translate(0.000000,630.000000) scale(0.100000,-0.100000)"
fill="#000000" stroke="none">
<path d="M0 3150 l0 -3150 6000 0 6000 0 0 3150 0 3150 -6000 0 -6000 0 0
-3150z m3290 642 c166 -55 248 -189 206 -334 -39 -137 -192 -208 -446 -208
l-112 0 4 -194 c2 -107 6 -198 11 -202 4 -4 52 -12 107 -18 70 -7 100 -14 100
-23 0 -10 -62 -13 -305 -13 -254 0 -305 2 -305 14 0 10 21 16 79 21 44 4 88
13 98 20 16 12 18 41 21 324 3 171 1 371 -3 445 l-7 135 -30 10 c-17 6 -60 11
-94 11 -54 0 -64 3 -64 18 0 16 23 17 338 16 319 0 341 -1 402 -22z m1860
-152 l0 -160 110 0 110 0 0 -25 0 -25 -110 0 -110 0 0 -227 c0 -270 9 -338 45
-370 45 -39 107 -25 141 30 15 26 19 57 22 175 2 78 8 142 12 142 13 0 21
-192 10 -255 -18 -106 -67 -147 -181 -147 -55 0 -81 6 -124 26 -91 45 -89 38
-81 353 l6 273 -80 0 c-79 0 -107 14 -52 26 62 13 114 34 147 59 45 35 91 130
106 218 6 37 15 67 20 67 5 0 9 -72 9 -160z m1630 -5 c76 -39 32 -142 -46
-106 -18 8 -24 19 -24 41 0 39 -27 41 -41 3 -17 -46 -2 -91 47 -138 102 -100
112 -238 22 -322 -68 -64 -217 -90 -337 -59 -81 21 -84 21 -121 -10 -26 -22
-31 -33 -28 -63 3 -31 9 -39 42 -55 36 -17 47 -18 177 -6 76 7 161 10 188 7
66 -8 123 -38 158 -83 23 -31 28 -49 31 -108 3 -59 -1 -79 -20 -116 -29 -57
-99 -105 -175 -121 -78 -16 -253 -7 -323 17 -76 26 -140 88 -140 136 0 46 31
84 81 99 38 12 53 29 24 29 -8 0 -30 14 -50 31 -74 65 -67 182 15 255 l29 26
-32 40 c-30 37 -32 45 -32 117 0 68 3 83 28 120 31 47 102 96 162 112 22 6 82
9 133 7 l93 -4 -6 28 c-10 43 13 97 49 119 37 23 58 24 96 4z m-2880 -166 c24
-13 59 -43 77 -67 37 -48 73 -154 73 -213 l0 -39 -215 0 -215 0 0 -47 c0 -185
69 -293 187 -293 123 0 197 69 210 196 4 36 10 54 19 54 19 0 18 -53 -2 -119
-20 -67 -81 -131 -144 -150 -24 -7 -78 -13 -120 -13 -138 1 -230 54 -287 165
-38 74 -45 216 -14 314 35 112 107 191 208 229 58 22 169 13 223 -17z m1991 4
c24 -11 59 -34 76 -52 l32 -32 3 -260 c3 -260 3 -261 26 -280 18 -14 28 -16
43 -9 35 19 44 51 44 157 0 69 4 103 11 103 16 0 26 -124 15 -188 -15 -94 -62
-135 -147 -129 -59 4 -106 33 -126 77 -7 17 -15 30 -19 30 -3 0 -15 -13 -27
-30 -72 -97 -280 -107 -344 -17 -35 49 -32 146 5 210 43 72 87 96 205 112 112
14 139 25 152 61 15 38 12 150 -4 189 -18 43 -42 55 -108 55 -62 0 -110 -25
-133 -69 -20 -39 -19 -41 9 -41 28 0 56 -33 56 -66 0 -35 -44 -74 -85 -74 -50
0 -75 28 -75 86 0 25 5 55 11 67 27 52 83 97 149 118 43 14 182 3 231 -18z
m2042 -7 c99 -48 99 -46 100 -342 l2 -256 24 -19 c54 -44 94 33 89 169 -2 58
0 82 9 82 18 0 27 -125 15 -194 -9 -45 -19 -68 -42 -91 -27 -27 -37 -30 -93
-30 -70 0 -112 22 -137 72 -8 15 -15 29 -16 31 -1 2 -22 -16 -46 -41 -31 -30
-58 -47 -90 -55 -109 -28 -211 -3 -244 60 -27 50 -24 133 7 193 39 77 86 104
206 120 107 14 137 24 153 55 15 28 12 155 -4 195 -18 42 -42 55 -101 55 -62
0 -111 -22 -135 -62 -25 -42 -25 -48 2 -48 31 0 58 -29 58 -62 0 -41 -40 -78
-85 -78 -50 0 -75 28 -75 86 0 51 10 76 49 117 53 58 110 77 217 74 64 -3 93
-9 137 -31z m-3577 -53 c5 -63 9 -73 16 -53 31 84 104 130 205 130 78 0 133
-21 175 -66 47 -50 49 -68 42 -329 -5 -184 -4 -244 5 -249 7 -4 33 -11 58 -14
26 -4 48 -13 51 -20 3 -9 -40 -12 -192 -12 -159 0 -196 3 -196 14 0 9 16 15
46 19 25 2 51 10 57 16 18 18 16 484 -1 533 -17 48 -46 68 -97 68 -81 0 -130
-59 -155 -186 -6 -32 -14 -139 -17 -236 l-6 -177 27 -11 c15 -5 41 -10 57 -10
19 0 29 -5 29 -15 0 -13 -25 -15 -162 -15 -90 0 -180 -3 -200 -6 -31 -5 -38
-4 -38 10 0 8 10 18 23 20 12 2 40 8 62 13 l40 8 8 160 c10 190 4 412 -10 426
-6 6 -36 13 -67 16 -37 4 -56 10 -56 19 0 13 33 16 222 22 l66 2 8 -77z m2825
-40 c1 -115 1 -117 14 -71 19 71 53 135 87 163 42 36 114 35 157 -1 27 -22 31
-32 31 -75 0 -40 -5 -55 -25 -74 -29 -30 -74 -33 -106 -6 -35 28 -33 96 4 125
15 12 27 25 27 29 0 15 -49 6 -74 -14 -68 -54 -102 -199 -108 -462 -3 -148 1
-157 81 -157 50 0 82 -14 66 -27 -6 -5 -108 -7 -227 -5 -165 3 -218 7 -218 16
0 8 24 16 63 22 l62 9 6 100 c12 190 10 460 -4 479 -8 11 -32 19 -70 23 -37 4
-57 10 -57 19 0 13 33 16 223 22 l67 2 1 -117z m1309 35 l0 -83 24 51 c13 29
40 64 61 79 31 24 48 29 113 33 67 3 83 1 122 -20 48 -26 89 -84 90 -128 0
-19 8 -10 31 37 42 88 73 107 176 111 74 4 86 1 133 -24 35 -19 60 -42 76 -70
l24 -42 -6 -249 c-5 -182 -4 -252 4 -257 6 -4 34 -10 62 -13 33 -4 50 -11 50
-19 0 -11 -37 -14 -195 -14 -158 0 -195 3 -195 14 0 9 18 15 52 19 28 4 55 12
60 19 11 18 10 486 -2 527 -15 55 -47 81 -96 81 -83 0 -131 -68 -153 -220 -14
-98 -23 -373 -12 -389 5 -7 32 -16 60 -19 34 -3 51 -9 51 -18 0 -11 -36 -14
-195 -14 -159 0 -195 3 -195 14 0 9 17 15 51 18 28 3 55 12 60 19 5 8 9 128 9
267 0 280 -6 313 -57 333 -72 27 -143 -20 -173 -117 -28 -94 -52 -450 -31
-483 5 -7 29 -16 55 -18 30 -4 46 -10 46 -19 0 -11 -31 -14 -157 -14 -87 0
-175 -3 -195 -6 -31 -5 -38 -4 -38 10 0 15 10 19 82 31 20 3 39 13 42 21 3 9
6 141 6 294 l0 279 -37 10 c-21 6 -50 11 -65 11 -18 0 -28 5 -28 15 0 14 32
18 218 23 l72 2 0 -82z"/>
<path d="M2989 3783 l-36 -4 -7 -106 c-3 -58 -6 -171 -6 -251 l0 -145 113 6
c120 5 167 19 205 60 67 72 68 285 2 370 -41 52 -161 83 -271 70z"/>
<path d="M6463 3454 c-52 -26 -78 -91 -78 -194 1 -93 15 -133 61 -169 62 -49
162 -12 184 67 27 100 4 239 -47 285 -29 26 -82 31 -120 11z"/>
<path d="M6455 2770 c-106 -19 -155 -60 -155 -128 0 -35 31 -77 72 -98 78 -41
253 -37 339 6 100 52 104 166 7 205 -50 20 -191 28 -263 15z"/>
<path d="M3708 3460 c-41 -24 -68 -97 -83 -222 l-6 -58 142 0 142 0 -6 89 c-6
101 -23 148 -62 179 -30 24 -96 29 -127 12z"/>
<path d="M5800 3159 c-19 -11 -46 -19 -60 -19 -41 0 -90 -37 -110 -83 -23 -50
-26 -134 -5 -182 36 -88 157 -59 200 47 19 47 34 259 19 257 -5 -1 -25 -10
-44 -20z"/>
<path d="M7835 3159 c-22 -10 -51 -19 -65 -19 -97 -1 -160 -145 -114 -259 38
-95 151 -70 200 44 15 35 35 257 23 254 -2 0 -22 -9 -44 -20z"/>
</g>
</svg>
