<?xml version="1.0" standalone="no"?>
<!DOCTYPE svg PUBLIC "-//W3C//DTD SVG 20010904//EN"
 "http://www.w3.org/TR/2001/REC-SVG-20010904/DTD/svg10.dtd">
<svg version="1.0" xmlns="http://www.w3.org/2000/svg"
 width="1780.000000pt" height="1147.000000pt" viewBox="0 0 1780.000000 1147.000000"
 preserveAspectRatio="xMidYMid meet">

<g transform="translate(0.000000,1147.000000) scale(0.100000,-0.100000)"
fill="#000000" stroke="none">
<path d="M7150 8333 c1 -5 49 -44 108 -88 58 -44 213 -161 343 -260 131 -99
350 -265 488 -370 138 -104 251 -192 251 -195 0 -3 -361 -127 -802 -275 -727
-245 -803 -272 -806 -292 -2 -16 4 -26 22 -34 18 -9 639 -9 2428 -3 l2403 9 0
25 c0 24 -24 33 -795 290 -437 146 -800 268 -806 270 -6 3 260 210 592 460
332 250 603 458 604 463 0 4 -10 7 -23 7 -12 0 -466 -148 -1009 -329 l-988
-329 -992 329 c-546 181 -999 329 -1005 329 -7 0 -13 -3 -13 -7z"/>
<path d="M4656 6115 c-458 -95 -746 -465 -746 -960 0 -282 85 -513 255 -693
127 -135 255 -210 440 -258 85 -22 122 -26 240 -26 239 -1 414 55 585 187 296
227 426 671 319 1081 -84 323 -328 571 -644 655 -104 28 -346 35 -449 14z
m332 -261 c239 -49 411 -225 484 -493 30 -109 29 -324 0 -434 -52 -190 -181
-358 -332 -430 -97 -47 -184 -67 -290 -67 -184 0 -315 54 -440 179 -127 128
-187 281 -197 501 -4 102 -1 143 16 224 23 114 77 235 140 314 141 177 377
256 619 206z"/>
<path d="M9596 6110 c-202 -51 -364 -192 -418 -363 -26 -84 -26 -229 0 -315
48 -153 168 -264 352 -325 25 -8 135 -36 245 -62 234 -55 321 -91 381 -157 53
-57 68 -103 61 -185 -9 -112 -86 -200 -210 -239 -80 -25 -229 -30 -305 -10
-180 46 -277 141 -368 362 -9 22 -12 21 -144 -38 -74 -33 -136 -61 -138 -63
-8 -8 55 -147 95 -209 97 -150 235 -248 429 -302 79 -22 313 -30 413 -14 156
25 290 90 377 182 93 99 132 190 141 330 11 169 -29 282 -141 393 -116 115
-195 147 -566 235 -220 52 -319 111 -349 209 -26 87 -7 165 55 231 108 116
327 140 501 55 87 -43 142 -101 190 -202 20 -40 36 -73 38 -73 1 0 60 27 131
60 148 69 145 63 91 170 -66 132 -233 269 -392 321 -102 32 -355 37 -469 9z"/>
<path d="M7610 5155 l0 -945 640 0 c583 0 640 1 640 16 0 9 -43 68 -95 130
l-96 114 -409 0 -410 0 0 295 0 295 360 0 360 0 0 130 0 130 -360 0 -360 0 2
258 3 257 360 3 360 2 140 111 c80 63 140 118 140 127 0 16 -49 17 -637 20
l-638 2 0 -945z"/>
<path d="M10604 6087 c-2 -7 -3 -67 -2 -133 l3 -119 328 -3 327 -2 0 -810 0
-810 145 0 145 0 0 810 0 810 340 0 340 0 0 135 0 135 -810 0 c-659 0 -812 -2
-816 -13z"/>
<path d="M12767 6093 c-6 -11 -698 -1843 -705 -1866 -4 -16 6 -17 149 -15
l153 3 90 248 89 247 392 0 393 0 41 -112 c22 -62 63 -174 90 -248 l48 -135
158 -3 c147 -2 157 -1 153 15 -4 14 -651 1772 -684 1856 -5 15 -28 17 -184 17
-99 0 -181 -3 -183 -7z m207 -280 c9 -109 39 -215 155 -542 56 -156 101 -287
101 -292 0 -5 -130 -9 -295 -9 -162 0 -295 3 -295 7 0 3 54 157 119 342 114
320 131 382 146 514 6 54 8 57 34 57 28 0 28 -1 35 -77z"/>
<path d="M14090 5156 l0 -946 145 0 145 0 0 386 0 385 268 -3 c289 -3 298 -5
385 -65 80 -55 103 -120 162 -445 24 -138 46 -253 48 -255 2 -2 72 -2 154 -1
l150 3 -63 295 c-51 240 -70 308 -99 367 -56 114 -144 173 -280 189 -52 6 -55
8 -55 35 0 22 6 30 23 33 108 23 141 32 203 62 140 66 212 179 221 349 12 214
-85 389 -267 479 -143 70 -133 69 -662 73 l-478 4 0 -945z m948 640 c119 -55
168 -139 160 -278 -7 -130 -48 -191 -163 -245 l-60 -28 -297 -3 -298 -3 0 296
0 296 298 -3 297 -3 63 -29z"/>
<path d="M2340 5150 l0 -940 140 0 140 0 0 365 0 365 253 0 c366 0 480 19 606
100 172 111 251 262 251 480 0 234 -100 405 -292 499 -136 68 -165 71 -660 71
l-438 0 0 -940z m798 680 c88 -12 178 -50 220 -93 54 -56 77 -120 77 -217 0
-104 -26 -170 -90 -229 -93 -86 -178 -103 -495 -99 l-225 3 -3 310 c-1 170 0
315 3 322 5 16 399 18 513 3z"/>
<path d="M6070 5150 l0 -940 620 0 620 0 0 130 0 130 -477 2 -478 3 -3 808 -2
807 -140 0 -140 0 0 -940z"/>
<path d="M12750 3725 l0 -115 105 0 105 0 0 115 0 115 -105 0 -105 0 0 -115z"/>
<path d="M15280 3105 l0 -735 100 0 100 0 0 735 0 735 -100 0 -100 0 0 -735z"/>
<path d="M13400 3585 l0 -165 -120 0 -121 0 3 -82 3 -83 118 -3 117 -3 0 -335
c0 -208 4 -351 11 -378 14 -55 59 -110 112 -139 38 -20 59 -22 220 -25 l177
-4 0 86 0 86 -114 0 c-62 0 -127 5 -145 11 -59 21 -61 34 -61 384 l0 315 140
0 140 0 0 85 0 85 -140 0 -140 0 0 165 0 165 -100 0 -100 0 0 -165z"/>
<path d="M10624 3435 c-128 -28 -252 -114 -298 -207 -14 -29 -26 -57 -26 -63
0 -17 182 -73 188 -57 2 7 24 39 48 71 58 77 111 101 221 101 138 -1 203 -50
211 -161 5 -67 22 -57 -153 -84 -206 -31 -333 -88 -421 -188 -55 -62 -78 -136
-72 -231 8 -115 59 -195 156 -243 52 -26 67 -28 167 -28 96 0 116 3 153 23 64
34 126 101 158 171 27 58 30 61 65 61 l36 0 6 -59 c11 -122 46 -153 182 -159
l95 -4 0 86 0 86 -69 0 c-43 0 -72 5 -79 13 -7 7 -12 125 -14 317 l-3 305 -26
56 c-36 75 -87 130 -152 162 -94 46 -249 59 -373 32z m354 -622 c-4 -72 -11
-112 -28 -150 -52 -121 -188 -187 -312 -153 -144 40 -153 225 -15 304 60 34
149 64 242 80 129 23 118 31 113 -81z"/>
<path d="M14415 3443 c-91 -12 -191 -60 -263 -127 -41 -38 -92 -120 -92 -149
0 -11 146 -67 176 -67 6 0 18 16 27 35 27 58 84 112 134 129 72 25 190 21 243
-7 54 -28 90 -90 90 -153 0 -41 -2 -43 -32 -48 -255 -40 -325 -58 -422 -109
-127 -68 -187 -154 -194 -283 -8 -141 42 -235 153 -289 72 -36 195 -45 277
-21 77 22 157 95 199 182 31 63 33 65 68 62 l36 -3 6 -61 c11 -117 58 -154
199 -154 l80 0 0 85 0 85 -69 0 c-43 0 -72 5 -79 13 -6 7 -12 125 -14 307 -5
334 -10 363 -78 449 -80 101 -253 150 -445 124z m315 -616 c0 -149 -46 -244
-142 -294 -44 -23 -66 -28 -128 -28 -85 0 -139 24 -165 75 -19 37 -19 113 -1
148 48 91 209 160 424 181 9 1 12 -22 12 -82z"/>
<path d="M9553 3425 c-171 -46 -301 -183 -348 -365 -22 -84 -22 -263 0 -343
62 -235 245 -377 485 -377 141 0 239 39 333 133 49 50 117 159 117 189 0 12
-145 68 -176 68 -5 0 -17 -20 -27 -44 -24 -59 -80 -122 -130 -148 -57 -29
-151 -35 -215 -14 -111 37 -182 139 -201 291 -32 261 91 455 290 455 97 0 195
-63 234 -151 10 -21 23 -39 28 -39 6 0 48 12 94 27 58 19 83 32 83 43 0 19
-62 125 -93 159 -43 47 -137 99 -207 115 -84 19 -197 20 -267 1z"/>
<path d="M11980 3427 c-107 -24 -179 -84 -233 -194 -21 -43 -22 -43 -74 -43
l-53 0 30 48 c32 53 60 123 60 153 0 17 -9 19 -90 19 l-90 0 0 -730 0 -730
101 0 102 0 -6 188 c-6 203 -19 266 -78 384 -16 32 -29 60 -29 63 0 3 22 5 49
5 l50 0 32 -60 c70 -132 149 -187 282 -197 188 -14 349 102 416 299 49 146 50
351 1 498 -72 219 -268 343 -470 297z m146 -185 c53 -27 108 -91 129 -151 23
-63 31 -261 15 -343 -31 -160 -116 -237 -261 -238 -191 0 -289 127 -289 373 0
186 74 328 196 373 54 20 158 13 210 -14z"/>
<path d="M12760 2890 l0 -520 95 0 95 0 0 520 0 520 -95 0 -95 0 0 -520z"/>
</g>
</svg>
