<?xml version="1.0" standalone="no"?>
<!DOCTYPE svg PUBLIC "-//W3C//DTD SVG 20010904//EN"
 "http://www.w3.org/TR/2001/REC-SVG-20010904/DTD/svg10.dtd">
<svg version="1.0" xmlns="http://www.w3.org/2000/svg"
 width="300.000000pt" height="168.000000pt" viewBox="0 0 300.000000 168.000000"
 preserveAspectRatio="xMidYMid meet">

<g transform="translate(0.000000,168.000000) scale(0.100000,-0.100000)"
fill="#000000" stroke="none">
<path d="M1080 925 l0 -325 80 0 80 0 0 135 c0 131 1 137 25 160 13 14 29 25
35 25 6 0 22 -11 35 -25 24 -23 25 -29 25 -160 l0 -135 75 0 75 0 0 173 c0
189 -7 219 -64 262 -40 29 -133 28 -175 -3 l-31 -23 0 121 0 120 -80 0 -80 0
0 -325z"/>
<path d="M2759 1173 c-17 -43 -56 -136 -85 -206 l-53 -128 95 3 95 3 76 180
c41 99 79 190 84 203 8 22 8 22 -85 22 l-94 0 -33 -77z"/>
<path d="M659 1033 c-167 -85 -156 -363 16 -429 57 -21 135 -15 176 15 29 21
29 21 29 1 0 -18 6 -20 75 -20 l75 0 0 225 0 225 -75 0 c-67 0 -75 -2 -75 -19
0 -17 -3 -17 -47 5 -61 31 -107 30 -174 -3z m170 -128 c85 -43 50 -175 -46
-175 -92 0 -127 130 -46 174 36 19 57 20 92 1z"/>
<path d="M1720 1051 c-99 -30 -156 -101 -167 -206 -18 -173 144 -296 321 -243
55 17 131 91 145 143 27 98 -4 207 -72 260 -61 46 -160 66 -227 46z m110 -146
c35 -18 50 -43 50 -85 0 -43 -47 -90 -90 -90 -43 0 -90 47 -90 90 0 43 16 69
53 85 41 18 42 18 77 0z"/>
<path d="M2219 1047 c-121 -45 -183 -170 -148 -294 17 -61 87 -133 145 -151
99 -29 200 -5 263 63 103 112 72 298 -62 367 -52 26 -149 33 -198 15z m121
-142 c60 -31 70 -107 19 -149 -41 -35 -83 -34 -120 3 -48 49 -37 120 24 146
41 18 42 18 77 0z"/>
<path d="M62 953 c22 -54 65 -154 94 -222 30 -69 54 -130 54 -137 0 -7 -13
-42 -30 -79 -16 -37 -30 -71 -30 -76 0 -6 35 -9 82 -7 l82 3 113 269 c62 148
119 287 128 308 l15 38 -83 0 -83 0 -49 -122 c-26 -68 -51 -126 -54 -130 -4
-4 -29 51 -56 122 l-50 130 -87 0 -87 0 41 -97z"/>
<path d="M2613 780 c-55 -33 -61 -122 -12 -163 69 -57 169 -14 169 73 0 52
-13 76 -50 95 -39 20 -69 19 -107 -5z"/>
</g>
</svg>
